<?xml version="1.0" encoding="UTF-8"?><svg id="Layer_1" xmlns="http://www.w3.org/2000/svg" width="249.1895142" height="167.7589722" xmlns:xlink="http://www.w3.org/1999/xlink" viewBox="0 0 249.1895142 167.7589722"><defs><style>.cls-1,.cls-2,.cls-3,.cls-4,.cls-5,.cls-6,.cls-7,.cls-8,.cls-9,.cls-10,.cls-11,.cls-12,.cls-13,.cls-14{fill:none;}.cls-2{stroke:#20aebc;}.cls-2,.cls-3,.cls-4,.cls-5,.cls-7,.cls-8,.cls-9,.cls-10,.cls-11,.cls-12,.cls-13,.cls-14{stroke-linecap:square;}.cls-2,.cls-4,.cls-5,.cls-6,.cls-7,.cls-8,.cls-9,.cls-10,.cls-11,.cls-13,.cls-14{stroke-linejoin:round;}.cls-2,.cls-4,.cls-7,.cls-9,.cls-10,.cls-11,.cls-13,.cls-14{stroke-width:1.2px;}.cls-3{stroke:#666;}.cls-3,.cls-12{stroke-miterlimit:10;}.cls-4{stroke:#88a94f;}.cls-15{letter-spacing:-.0710042em;}.cls-15,.cls-16,.cls-17,.cls-18,.cls-19,.cls-20,.cls-21,.cls-22,.cls-23{isolation:isolate;}.cls-15,.cls-17,.cls-18,.cls-19,.cls-20,.cls-21,.cls-22,.cls-23{font-family:DejaVuSans, 'DejaVu Sans';}.cls-15,.cls-17,.cls-21{fill:#555;}.cls-15,.cls-21{font-size:12px;}.cls-24{clip-path:url(#clippath-17);}.cls-25{clip-path:url(#clippath-11);}.cls-26{clip-path:url(#clippath-16);}.cls-27{clip-path:url(#clippath-10);}.cls-28{clip-path:url(#clippath-15);}.cls-29{clip-path:url(#clippath-13);}.cls-30{clip-path:url(#clippath-14);}.cls-31{clip-path:url(#clippath-12);}.cls-32{clip-path:url(#clippath-1);}.cls-33{clip-path:url(#clippath-3);}.cls-34{clip-path:url(#clippath-4);}.cls-35{clip-path:url(#clippath-2);}.cls-36{clip-path:url(#clippath-7);}.cls-37{clip-path:url(#clippath-6);}.cls-38{clip-path:url(#clippath-9);}.cls-39{clip-path:url(#clippath-8);}.cls-40{clip-path:url(#clippath-5);}.cls-41{fill:#fff;}.cls-5{stroke:#e6e6e6;stroke-width:.5px;}.cls-17,.cls-18,.cls-19,.cls-20,.cls-22,.cls-23{font-size:10px;}.cls-6{stroke:#555;stroke-width:.8px;}.cls-7{stroke:#c75544;}.cls-8{stroke:#348abd;stroke-width:1.5px;}.cls-9{stroke:#835c55;}.cls-18{letter-spacing:-.0160156em;}.cls-10{stroke:#daae64;}.cls-20{letter-spacing:-.0890137em;}.cls-22{letter-spacing:-.0640137em;}.cls-11{stroke:#dd7d28;}.cls-12{stroke:#fff;}.cls-42{clip-path:url(#clippath);}.cls-13{stroke:#9088bd;}.cls-14{stroke:#dda5a8;}.cls-23{letter-spacing:-.0390137em;}</style><clipPath id="clippath"><rect class="cls-1" x="56.0012512" y=".7199707" width="131.296402" height="131.6876831"/></clipPath><clipPath id="clippath-1"><rect class="cls-1" x="56.0012512" y=".7199707" width="131.296402" height="131.6876831"/></clipPath><clipPath id="clippath-2"><rect class="cls-1" x="56.0012512" y=".7199707" width="131.296402" height="131.6876831"/></clipPath><clipPath id="clippath-3"><rect class="cls-1" x="56.0012512" y=".7199707" width="131.296402" height="131.6876831"/></clipPath><clipPath id="clippath-4"><rect class="cls-1" x="56.0012512" y=".7199707" width="131.296402" height="131.6876831"/></clipPath><clipPath id="clippath-5"><rect class="cls-1" x="56.0012512" y=".7199707" width="131.296402" height="131.6876831"/></clipPath><clipPath id="clippath-6"><rect class="cls-1" x="56.0012512" y=".7199707" width="131.296402" height="131.6876831"/></clipPath><clipPath id="clippath-7"><rect class="cls-1" x="56.0012512" y=".7199707" width="131.296402" height="131.6876831"/></clipPath><clipPath id="clippath-8"><rect class="cls-1" x="56.0012512" y=".7199707" width="131.296402" height="131.6876831"/></clipPath><clipPath id="clippath-9"><rect class="cls-1" x="56.0012512" y=".7199707" width="131.296402" height="131.6876831"/></clipPath><clipPath id="clippath-10"><rect class="cls-1" x="56.0012512" y=".7199707" width="131.296402" height="131.6876831"/></clipPath><clipPath id="clippath-11"><rect class="cls-1" x="56.0012512" y=".7199707" width="131.296402" height="131.6876831"/></clipPath><clipPath id="clippath-12"><rect class="cls-1" x="56.0012512" y=".7199707" width="131.296402" height="131.6876831"/></clipPath><clipPath id="clippath-13"><rect class="cls-1" x="56.0012512" y=".7199707" width="131.296402" height="131.6876831"/></clipPath><clipPath id="clippath-14"><rect class="cls-1" x="56.0012512" y=".7199707" width="131.296402" height="131.6876831"/></clipPath><clipPath id="clippath-15"><rect class="cls-1" x="56.0012512" y=".7199707" width="131.296402" height="131.6876831"/></clipPath><clipPath id="clippath-16"><rect class="cls-1" x="56.0012512" y=".7199707" width="131.296402" height="131.6876831"/></clipPath><clipPath id="clippath-17"><rect class="cls-1" x="56.0012512" y=".7199707" width="131.296402" height="131.6876831"/></clipPath></defs><rect class="cls-41" x="1.75" width="247.4395142" height="166.7995148"/><rect class="cls-41" x="56.0012512" y=".7200012" width="131.2963867" height="131.6876373"/><g class="cls-42"><line class="cls-5" x1="80.3153992" y1="132.4076385" x2="80.3153992" y2=".7200012"/></g><line class="cls-6" x1="80.3153992" y1="132.4076385" x2="80.3153992" y2="135.9076385"/><g class="cls-16"><text class="cls-17" transform="translate(72.3622742 147.0014038)"><tspan x="0" y="0">0.8</tspan></text></g><g class="cls-32"><line class="cls-5" x1="128.9436951" y1="132.4076385" x2="128.9436951" y2=".7200012"/></g><line class="cls-6" x1="128.9436951" y1="132.4076385" x2="128.9436951" y2="135.9076385"/><g class="cls-16"><text class="cls-17" transform="translate(120.9905701 147.0014038)"><tspan x="0" y="0">0.9</tspan></text></g><g class="cls-35"><line class="cls-5" x1="177.571991" y1="132.4076385" x2="177.571991" y2=".7200012"/></g><line class="cls-6" x1="177.571991" y1="132.4076385" x2="177.571991" y2="135.9076385"/><g class="cls-16"><text class="cls-17" transform="translate(169.618866 147.0014038)"><tspan x="0" y="0">1.0</tspan></text></g><g class="cls-16"><text class="cls-21" transform="translate(76.1494446 162.2045288)"><tspan x="0" y="0">S</tspan></text></g><g class="cls-16"><text class="cls-21" transform="translate(83.7666321 162.2045288)"><tspan x="0" y="0">a</tspan></text></g><g class="cls-16"><text class="cls-21" transform="translate(91.1201477 162.2045288)"><tspan x="0" y="0">f</tspan></text></g><g class="cls-16"><text class="cls-21" transform="translate(95.3447571 162.2045288)"><tspan x="0" y="0">e</tspan></text></g><g class="cls-16"><text class="cls-21" transform="translate(102.7275696 162.2045288)"><tspan x="0" y="0">t</tspan></text></g><g class="cls-16"><text class="cls-21" transform="translate(107.4326477 162.2045288)"><tspan x="0" y="0">y</tspan></text></g><g class="cls-16"><text class="cls-21" transform="translate(118.3486633 162.2045288)"><tspan x="0" y="0">R</tspan></text></g><g class="cls-16"><text class="cls-21" transform="translate(126.686554 162.2045288)"><tspan x="0" y="0">a</tspan></text></g><g class="cls-16"><text class="cls-21" transform="translate(134.0400696 162.2045288)"><tspan x="0" y="0">t</tspan></text></g><g class="cls-16"><text class="cls-21" transform="translate(138.7451477 162.2045288)"><tspan x="0" y="0">e</tspan></text></g><g class="cls-16"><text class="cls-21" transform="translate(149.9424133 162.2045288)"><tspan x="0" y="0">(</tspan></text></g><g class="cls-16"><text class="cls-21" transform="translate(154.624054 162.2045288)"><tspan x="0" y="0">τ</tspan></text></g><g class="cls-16"><text class="cls-21" transform="translate(161.8486633 162.2045288)"><tspan x="0" y="0">)</tspan></text></g><g class="cls-33"><line class="cls-5" x1="56.0012512" y1="126.4218369" x2="187.2976379" y2="126.4218369"/></g><line class="cls-6" x1="56.0012512" y1="126.4218369" x2="52.5012512" y2="126.4218369"/><g class="cls-16"><text class="cls-17" transform="translate(33.0950012 130.218689)"><tspan x="0" y="0">0.0</tspan></text></g><g class="cls-34"><line class="cls-5" x1="56.0012512" y1="102.4786301" x2="187.2976379" y2="102.4786301"/></g><line class="cls-6" x1="56.0012512" y1="102.4786301" x2="52.5012512" y2="102.4786301"/><g class="cls-16"><text class="cls-17" transform="translate(33.0950012 106.2755127)"><tspan x="0" y="0">0.2</tspan></text></g><g class="cls-40"><line class="cls-5" x1="56.0012512" y1="78.5354233" x2="187.2976379" y2="78.5354233"/></g><line class="cls-6" x1="56.0012512" y1="78.5354233" x2="52.5012512" y2="78.5354233"/><g class="cls-16"><text class="cls-17" transform="translate(33.0950012 82.3322754)"><tspan x="0" y="0">0.4</tspan></text></g><g class="cls-37"><line class="cls-5" x1="56.0012512" y1="54.5922165" x2="187.2976379" y2="54.5922165"/></g><line class="cls-6" x1="56.0012512" y1="54.5922165" x2="52.5012512" y2="54.5922165"/><g class="cls-16"><text class="cls-17" transform="translate(33.0950012 58.3890991)"><tspan x="0" y="0">0.6</tspan></text></g><g class="cls-36"><line class="cls-5" x1="56.0012512" y1="30.6490021" x2="187.2976379" y2="30.6490021"/></g><line class="cls-6" x1="56.0012512" y1="30.6490021" x2="52.5012512" y2="30.6490021"/><g class="cls-16"><text class="cls-17" transform="translate(33.0950012 34.4458618)"><tspan x="0" y="0">0.8</tspan></text></g><g class="cls-39"><line class="cls-5" x1="56.0012512" y1="6.7057953" x2="187.2976379" y2="6.7057953"/></g><line class="cls-6" x1="56.0012512" y1="6.7057953" x2="52.5012512" y2="6.7057953"/><g class="cls-16"><text class="cls-17" transform="translate(33.0950012 10.5026855)"><tspan x="0" y="0">1.0</tspan></text></g><g class="cls-16"><text class="cls-15" transform="translate(11.5949707 127.9464722) rotate(-90)"><tspan x="0" y="0">F</tspan></text><text class="cls-21" transform="translate(11.5949707 121.8966675) rotate(-90)"><tspan x="0" y="0">raction of runs with</tspan></text></g><g class="cls-16"><text class="cls-21" transform="translate(25.2199707 124.0636597) rotate(-90)"><tspan x="0" y="0">s</tspan></text></g><g class="cls-16"><text class="cls-21" transform="translate(25.2199707 117.8117065) rotate(-90)"><tspan x="0" y="0">a</tspan></text></g><g class="cls-16"><text class="cls-21" transform="translate(25.2199707 110.4581909) rotate(-90)"><tspan x="0" y="0">f</tspan></text></g><g class="cls-16"><text class="cls-21" transform="translate(25.2199707 106.2335815) rotate(-90)"><tspan x="0" y="0">e</tspan></text></g><g class="cls-16"><text class="cls-21" transform="translate(25.2199707 98.850769) rotate(-90)"><tspan x="0" y="0">t</tspan></text></g><g class="cls-16"><text class="cls-21" transform="translate(25.2199707 94.1456909) rotate(-90)"><tspan x="0" y="0">y</tspan></text></g><g class="cls-16"><text class="cls-21" transform="translate(25.2199707 83.2296753) rotate(-90)"><tspan x="0" y="0">r</tspan></text></g><g class="cls-16"><text class="cls-21" transform="translate(25.2199707 78.2960815) rotate(-90)"><tspan x="0" y="0">a</tspan></text></g><g class="cls-16"><text class="cls-21" transform="translate(25.2199707 70.9425659) rotate(-90)"><tspan x="0" y="0">t</tspan></text></g><g class="cls-16"><text class="cls-21" transform="translate(25.2199707 66.2374878) rotate(-90)"><tspan x="0" y="0">e</tspan></text></g><g class="cls-16"><text class="cls-21" transform="translate(25.2199707 52.7023315) rotate(-90)"><tspan x="0" y="0">&gt;</tspan></text></g><g class="cls-16"><text class="cls-21" transform="translate(25.2199707 40.3097534) rotate(-90)"><tspan x="0" y="0">τ</tspan></text></g><g class="cls-16"><text class="cls-21" transform="translate(25.2199707 29.2706909) rotate(-90)"><tspan x="0" y="0">(</tspan></text></g><g class="cls-16"><text class="cls-21" transform="translate(25.2199707 24.5890503) rotate(-90)"><tspan x="0" y="0">↑</tspan></text></g><g class="cls-16"><text class="cls-21" transform="translate(25.2199707 14.5343628) rotate(-90)"><tspan x="0" y="0">)</tspan></text></g><line class="cls-3" x1="56.0012512" y1="132.4076385" x2="56.0012512" y2=".7200012"/><line class="cls-12" x1="187.2976379" y1="132.4076385" x2="187.2976379" y2=".7200012"/><line class="cls-3" x1="56.0012512" y1="132.4076385" x2="187.2976379" y2="132.4076385"/><line class="cls-12" x1="56.0012512" y1=".7200012" x2="187.2976379" y2=".7200012"/><g class="cls-38"><polyline class="cls-7" points=".75 6.7057953 66.4216003 6.7057953 69.89505 26.6584778 90.7357483 26.6584778 94.209198 33.3093567 104.6295471 33.3093567 108.1029968 39.9602509 118.5233459 39.9602509 125.4702454 53.2620316 135.8905945 53.2620316 139.3640442 59.9129257 142.8374939 59.9129257 153.257843 79.8656006 156.7312927 79.8656006 160.2047424 86.5164871 167.1516418 86.5164871 170.6250916 93.1673813 174.0985413 126.4218369 177.571991 126.4218369"/></g><g class="cls-27"><polyline class="cls-13" points=".75 6.7057953 66.4216003 6.7057953 69.89505 26.6584778 90.7357483 26.6584778 94.209198 33.3093567 115.0498962 33.3093567 118.5233459 39.9602509 125.4702454 39.9602509 128.9436951 46.611145 146.3109436 46.611145 149.7843933 59.9129257 153.257843 66.5638199 156.7312927 66.5638199 160.2047424 73.2147064 163.6781921 86.5164871 170.6250916 86.5164871 177.571991 126.4218369"/></g><g class="cls-25"><polyline class="cls-10" points=".75 6.7057953 90.7357483 6.7057953 94.209198 13.0066376 101.1560974 13.0066376 104.6295471 19.3074799 118.5233459 19.3074799 125.4702454 31.9091797 132.4171448 57.1125488 135.8905945 63.4133911 142.8374939 63.4133911 146.3109436 88.6167755 167.1516418 88.6167755 170.6250916 94.9176178 174.0985413 94.9176178 177.571991 126.4218369"/></g><g class="cls-31"><polyline class="cls-4" points=".75 88.6167755 49.0543518 88.6167755 52.5278015 94.9176178 62.9481506 94.9176178 66.4216003 101.2184601 97.6826477 101.2184601 101.1560974 107.51931 121.9967957 107.51931 125.4702454 113.8201523 132.4171448 113.8201523 135.8905945 120.1209946 146.3109436 120.1209946 149.7843933 126.4218369 177.571991 126.4218369"/></g><g class="cls-29"><polyline class="cls-14" points=".75 91.211235 21.2667542 91.211235 24.7402039 98.2533569 28.2136536 98.2533569 31.6871033 105.2954788 35.160553 105.2954788 38.6340027 112.3376007 174.0985413 112.3376007 177.571991 126.4218369"/></g><g class="cls-30"><polyline class="cls-2" points=".75 50.8117065 7.3729558 50.8117065 10.846405 63.4133911 31.6871033 63.4133911 35.160553 69.714241 62.9481506 69.714241 66.4216003 76.0150833 69.89505 94.9176178 73.3684998 94.9176178 76.8419495 101.2184601 97.6826477 101.2184601 101.1560974 107.51931 104.6295471 107.51931 108.1029968 113.8201523 111.5764465 113.8201523 115.0498962 120.1209946 167.1516418 120.1209946 170.6250916 126.4218369 177.571991 126.4218369"/></g><g class="cls-28"><polyline class="cls-9" points=".75 36.6348114 7.3729558 36.6348114 10.846405 44.1170578 62.9481506 44.1170578 66.4216003 51.5993118 125.4702454 51.5993118 128.9436951 59.0815659 139.3640442 59.0815659 142.8374939 74.0460663 146.3109436 81.5283203 167.1516418 81.5283203 170.6250916 89.0105743 174.0985413 103.9750824 177.571991 126.4218369"/></g><g class="cls-26"><polyline class="cls-11" points=".75 6.7057953 56.0012512 6.7057953 59.4747009 14.1880493 62.9481506 14.1880493 66.4216003 21.6703033 69.89505 44.1170578 125.4702454 44.1170578 128.9436951 51.5993118 132.4171448 66.5638199 135.8905945 74.0460663 142.8374939 74.0460663 146.3109436 81.5283203 170.6250916 81.5283203 174.0985413 96.4928284 177.571991 126.4218369"/></g><g class="cls-24"><polyline class="cls-8" points=".75 6.7057953 125.4702454 6.7057953 128.9436951 13.3566895 160.2047424 13.3566895 163.6781921 26.6584778 167.1516418 33.3093567 170.6250916 73.2147064 174.0985413 86.5164871 177.571991 126.4218369"/></g><polyline class="cls-8" points="191.2976379 8.8137512 197.2976379 8.8137512 203.2976379 8.8137512"/><g class="cls-16"><text class="cls-19" transform="translate(208.2976379 12.3137817)"><tspan x="0" y="0">FGE</tspan></text></g><polyline class="cls-7" points="191.2976379 23.4856262 197.2976379 23.4856262 203.2976379 23.4856262"/><g class="cls-16"><text class="cls-19" transform="translate(208.2976379 26.9856567)"><tspan x="0" y="0">DR</tspan></text></g><polyline class="cls-13" points="191.2976379 38.1575012 197.2976379 38.1575012 203.2976379 38.1575012"/><g class="cls-16"><text class="cls-19" transform="translate(208.2976379 41.6574707)"><tspan x="0" y="0">VDS</tspan></text></g><polyline class="cls-10" points="191.2976379 52.8293686 197.2976379 52.8293686 203.2976379 52.8293686"/><g class="cls-16"><text class="cls-19" transform="translate(208.2976379 56.3293457)"><tspan x="0" y="0">PLR</tspan></text></g><polyline class="cls-4" points="191.2976379 67.5012436 197.2976379 67.5012436 203.2976379 67.5012436"/><g class="cls-16"><text class="cls-23" transform="translate(208.2976379 71.0012207)"><tspan x="0" y="0">R</tspan></text><text class="cls-19" transform="translate(214.8459778 71.0012207)"><tspan x="0" y="0">ARL</tspan></text></g><polyline class="cls-14" points="191.2976379 82.1731186 197.2976379 82.1731186 203.2976379 82.1731186"/><g class="cls-16"><text class="cls-22" transform="translate(208.2976379 85.6730957)"><tspan x="0" y="0">P</tspan></text><text class="cls-19" transform="translate(213.6877747 85.6730957)"><tspan x="0" y="0">AIRED</tspan></text></g><polyline class="cls-2" points="191.2976379 96.8449936 197.2976379 96.8449936 203.2976379 96.8449936"/><g class="cls-16"><text class="cls-20" transform="translate(208.2976379 100.3449707)"><tspan x="0" y="0">F</tspan></text><text class="cls-19" transform="translate(213.1496887 100.3449707)"><tspan x="0" y="0">ARR</tspan></text></g><polyline class="cls-9" points="191.2976379 111.5168686 197.2976379 111.5168686 203.2976379 111.5168686"/><g class="cls-16"><text class="cls-18" transform="translate(208.2976379 115.0168457)"><tspan x="0" y="0">A</tspan></text><text class="cls-19" transform="translate(214.9685364 115.0168457)"><tspan x="0" y="0">CCEL</tspan></text></g><polyline class="cls-11" points="191.2976379 126.1887436 197.2976379 126.1887436 203.2976379 126.1887436"/><g class="cls-16"><text class="cls-19" transform="translate(208.2976379 129.6887817)"><tspan x="0" y="0">SFL</tspan></text></g></svg>