<?xml version="1.0" encoding="UTF-8"?><svg id="Layer_1" xmlns="http://www.w3.org/2000/svg" width="681.5999756" height="200.8000031" xmlns:xlink="http://www.w3.org/1999/xlink" viewBox="0 0 681.5999756 200.8000031"><defs><style>.cls-1,.cls-2,.cls-3,.cls-4,.cls-5{fill:none;}.cls-6,.cls-7,.cls-8,.cls-9,.cls-10,.cls-11,.cls-12,.cls-13,.cls-14,.cls-15{font-size:12px;}.cls-6,.cls-7,.cls-8,.cls-9,.cls-10,.cls-11,.cls-12,.cls-13,.cls-14,.cls-15,.cls-16{font-family:DejaVuSans, 'DejaVu Sans';}.cls-6,.cls-17{fill:#daae64;}.cls-18,.cls-19,.cls-20,.cls-21,.cls-22,.cls-23,.cls-24,.cls-25,.cls-17{opacity:.75;}.cls-18,.cls-15{fill:#835c55;}.cls-19,.cls-14{fill:#88a94f;}.cls-2{opacity:.5;stroke:#000;stroke-width:1.5px;}.cls-2,.cls-4,.cls-5{stroke-linejoin:round;}.cls-20,.cls-9{fill:#348abd;}.cls-7,.cls-22{fill:#c75544;}.cls-3{stroke:#4d4d4d;stroke-miterlimit:10;stroke-width:2px;}.cls-3,.cls-4{stroke-linecap:square;}.cls-8,.cls-25{fill:#dd7d28;}.cls-21,.cls-11{fill:#dda5a8;}.cls-10,.cls-24{fill:#9088bd;}.cls-4{opacity:.25;stroke:gray;stroke-width:.8px;}.cls-26{clip-path:url(#clippath-17);}.cls-27{clip-path:url(#clippath-19);}.cls-28{clip-path:url(#clippath-11);}.cls-29{clip-path:url(#clippath-16);}.cls-30{clip-path:url(#clippath-18);}.cls-31{clip-path:url(#clippath-10);}.cls-32{clip-path:url(#clippath-15);}.cls-33{clip-path:url(#clippath-13);}.cls-34{clip-path:url(#clippath-14);}.cls-35{clip-path:url(#clippath-12);}.cls-36{clip-path:url(#clippath-61);}.cls-37{clip-path:url(#clippath-60);}.cls-38{clip-path:url(#clippath-62);}.cls-39{clip-path:url(#clippath-64);}.cls-40{clip-path:url(#clippath-63);}.cls-41{clip-path:url(#clippath-50);}.cls-42{clip-path:url(#clippath-55);}.cls-43{clip-path:url(#clippath-52);}.cls-44{clip-path:url(#clippath-57);}.cls-45{clip-path:url(#clippath-54);}.cls-46{clip-path:url(#clippath-56);}.cls-47{clip-path:url(#clippath-53);}.cls-48{clip-path:url(#clippath-51);}.cls-49{clip-path:url(#clippath-58);}.cls-50{clip-path:url(#clippath-59);}.cls-51{clip-path:url(#clippath-31);}.cls-52{clip-path:url(#clippath-32);}.cls-53{clip-path:url(#clippath-34);}.cls-54{clip-path:url(#clippath-35);}.cls-55{clip-path:url(#clippath-39);}.cls-56{clip-path:url(#clippath-30);}.cls-57{clip-path:url(#clippath-36);}.cls-58{clip-path:url(#clippath-37);}.cls-59{clip-path:url(#clippath-38);}.cls-60{clip-path:url(#clippath-27);}.cls-61{clip-path:url(#clippath-29);}.cls-62{clip-path:url(#clippath-26);}.cls-63{clip-path:url(#clippath-28);}.cls-64{clip-path:url(#clippath-20);}.cls-65{clip-path:url(#clippath-21);}.cls-66{clip-path:url(#clippath-22);}.cls-67{clip-path:url(#clippath-23);}.cls-68{clip-path:url(#clippath-24);}.cls-69{clip-path:url(#clippath-25);}.cls-70{clip-path:url(#clippath-41);}.cls-71{clip-path:url(#clippath-42);}.cls-72{clip-path:url(#clippath-43);}.cls-73{clip-path:url(#clippath-44);}.cls-74{clip-path:url(#clippath-45);}.cls-75{clip-path:url(#clippath-49);}.cls-76{clip-path:url(#clippath-40);}.cls-77{clip-path:url(#clippath-46);}.cls-78{clip-path:url(#clippath-47);}.cls-79{clip-path:url(#clippath-48);}.cls-80{clip-path:url(#clippath-1);}.cls-81{clip-path:url(#clippath-3);}.cls-82{clip-path:url(#clippath-4);}.cls-83{clip-path:url(#clippath-2);}.cls-84{clip-path:url(#clippath-7);}.cls-85{clip-path:url(#clippath-6);}.cls-86{clip-path:url(#clippath-9);}.cls-87{clip-path:url(#clippath-8);}.cls-88{clip-path:url(#clippath-5);}.cls-23,.cls-13{fill:#20aebc;}.cls-89{fill:#fff;}.cls-5{stroke:#555;stroke-width:.1px;}.cls-12{fill:#555;}.cls-90{letter-spacing:-.0909831em;}.cls-91{letter-spacing:-.0629883em;}.cls-92{letter-spacing:-.0209961em;}.cls-93{letter-spacing:-.0160086em;}.cls-94{letter-spacing:-.0159912em;}.cls-95{letter-spacing:-.0399984em;}.cls-16{font-size:14px;}.cls-96{clip-path:url(#clippath);}</style><clipPath id="clippath"><rect class="cls-1" x="60.6906242" y="23.8406219" width="182.0387306" height="154.5343819"/></clipPath><clipPath id="clippath-1"><rect class="cls-1" x="60.6906242" y="23.8406219" width="182.0387306" height="154.5343819"/></clipPath><clipPath id="clippath-2"><rect class="cls-1" x="60.6906242" y="23.8406219" width="182.0387306" height="154.5343819"/></clipPath><clipPath id="clippath-3"><rect class="cls-1" x="60.6906242" y="23.8406219" width="182.0387306" height="154.5343819"/></clipPath><clipPath id="clippath-4"><rect class="cls-1" x="60.6906242" y="23.8406219" width="182.0387306" height="154.5343819"/></clipPath><clipPath id="clippath-5"><rect class="cls-1" x="60.6906242" y="23.8406219" width="182.0387306" height="154.5343819"/></clipPath><clipPath id="clippath-6"><rect class="cls-1" x="60.6906242" y="23.8406219" width="182.0387306" height="154.5343819"/></clipPath><clipPath id="clippath-7"><rect class="cls-1" x="60.6906242" y="23.8406219" width="182.0387306" height="154.5343819"/></clipPath><clipPath id="clippath-8"><rect class="cls-1" x="60.6906242" y="23.8406219" width="182.0387306" height="154.5343819"/></clipPath><clipPath id="clippath-9"><rect class="cls-1" x="60.6906242" y="23.8406219" width="182.0387306" height="154.5343819"/></clipPath><clipPath id="clippath-10"><rect class="cls-1" x="60.6906242" y="23.8406219" width="182.0387306" height="154.5343819"/></clipPath><clipPath id="clippath-11"><rect class="cls-1" x="60.6906242" y="23.8406219" width="182.0387306" height="154.5343819"/></clipPath><clipPath id="clippath-12"><rect class="cls-1" x="60.6906242" y="23.8406219" width="182.0387306" height="154.5343819"/></clipPath><clipPath id="clippath-13"><rect class="cls-1" x="60.6906242" y="23.8406219" width="182.0387306" height="154.5343819"/></clipPath><clipPath id="clippath-14"><rect class="cls-1" x="60.6906242" y="23.8406219" width="182.0387306" height="154.5343819"/></clipPath><clipPath id="clippath-15"><rect class="cls-1" x="60.6906242" y="23.8406219" width="182.0387306" height="154.5343819"/></clipPath><clipPath id="clippath-16"><rect class="cls-1" x="60.6906242" y="23.8406219" width="182.0387306" height="154.5343819"/></clipPath><clipPath id="clippath-17"><rect class="cls-1" x="60.6906242" y="23.8406219" width="182.0387306" height="154.5343819"/></clipPath><clipPath id="clippath-18"><rect class="cls-1" x="60.6906242" y="23.8406219" width="182.0387306" height="154.5343819"/></clipPath><clipPath id="clippath-19"><rect class="cls-1" x="60.6906242" y="23.8406219" width="182.0387306" height="154.5343819"/></clipPath><clipPath id="clippath-20"><rect class="cls-1" x="60.6906242" y="23.8406219" width="182.0387306" height="154.5343819"/></clipPath><clipPath id="clippath-21"><rect class="cls-1" x="60.6906242" y="23.8406219" width="182.0387306" height="154.5343819"/></clipPath><clipPath id="clippath-22"><rect class="cls-1" x="286.3225403" y="23.8406219" width="182.0387268" height="154.5343819"/></clipPath><clipPath id="clippath-23"><rect class="cls-1" x="286.3225403" y="23.8406219" width="182.0387268" height="154.5343819"/></clipPath><clipPath id="clippath-24"><rect class="cls-1" x="286.3225403" y="23.8406219" width="182.0387268" height="154.5343819"/></clipPath><clipPath id="clippath-25"><rect class="cls-1" x="286.3225403" y="23.8406219" width="182.0387268" height="154.5343819"/></clipPath><clipPath id="clippath-26"><rect class="cls-1" x="286.3225403" y="23.8406219" width="182.0387268" height="154.5343819"/></clipPath><clipPath id="clippath-27"><rect class="cls-1" x="286.3225403" y="23.8406219" width="182.0387268" height="154.5343819"/></clipPath><clipPath id="clippath-28"><rect class="cls-1" x="286.3225403" y="23.8406219" width="182.0387268" height="154.5343819"/></clipPath><clipPath id="clippath-29"><rect class="cls-1" x="286.3225403" y="23.8406219" width="182.0387268" height="154.5343819"/></clipPath><clipPath id="clippath-30"><rect class="cls-1" x="286.3225403" y="23.8406219" width="182.0387268" height="154.5343819"/></clipPath><clipPath id="clippath-31"><rect class="cls-1" x="286.3225403" y="23.8406219" width="182.0387268" height="154.5343819"/></clipPath><clipPath id="clippath-32"><rect class="cls-1" x="286.3225403" y="23.8406219" width="182.0387268" height="154.5343819"/></clipPath><clipPath id="clippath-34"><rect class="cls-1" x="286.3225403" y="23.8406219" width="182.0387268" height="154.5343819"/></clipPath><clipPath id="clippath-35"><rect class="cls-1" x="286.3225403" y="23.8406219" width="182.0387268" height="154.5343819"/></clipPath><clipPath id="clippath-36"><rect class="cls-1" x="286.3225403" y="23.8406219" width="182.0387268" height="154.5343819"/></clipPath><clipPath id="clippath-37"><rect class="cls-1" x="286.3225403" y="23.8406219" width="182.0387268" height="154.5343819"/></clipPath><clipPath id="clippath-38"><rect class="cls-1" x="286.3225403" y="23.8406219" width="182.0387268" height="154.5343819"/></clipPath><clipPath id="clippath-39"><rect class="cls-1" x="286.3225403" y="23.8406219" width="182.0387268" height="154.5343819"/></clipPath><clipPath id="clippath-40"><rect class="cls-1" x="286.3225403" y="23.8406219" width="182.0387268" height="154.5343819"/></clipPath><clipPath id="clippath-41"><rect class="cls-1" x="286.3225403" y="23.8406219" width="182.0387268" height="154.5343819"/></clipPath><clipPath id="clippath-42"><rect class="cls-1" x="286.3225403" y="23.8406219" width="182.0387268" height="154.5343819"/></clipPath><clipPath id="clippath-43"><rect class="cls-1" x="286.3225403" y="23.8406219" width="182.0387268" height="154.5343819"/></clipPath><clipPath id="clippath-44"><rect class="cls-1" x="492.3612671" y="23.8406219" width="182.0387573" height="154.5343819"/></clipPath><clipPath id="clippath-45"><rect class="cls-1" x="492.3612671" y="23.8406219" width="182.0387573" height="154.5343819"/></clipPath><clipPath id="clippath-46"><rect class="cls-1" x="492.3612671" y="23.8406219" width="182.0387573" height="154.5343819"/></clipPath><clipPath id="clippath-47"><rect class="cls-1" x="492.3612671" y="23.8406219" width="182.0387573" height="154.5343819"/></clipPath><clipPath id="clippath-48"><rect class="cls-1" x="492.3612671" y="23.8406219" width="182.0387573" height="154.5343819"/></clipPath><clipPath id="clippath-49"><rect class="cls-1" x="492.3612671" y="23.8406219" width="182.0387573" height="154.5343819"/></clipPath><clipPath id="clippath-50"><rect class="cls-1" x="492.3612671" y="23.8406219" width="182.0387573" height="154.5343819"/></clipPath><clipPath id="clippath-51"><rect class="cls-1" x="492.3612671" y="23.8406219" width="182.0387573" height="154.5343819"/></clipPath><clipPath id="clippath-52"><rect class="cls-1" x="492.3612671" y="23.8406219" width="182.0387573" height="154.5343819"/></clipPath><clipPath id="clippath-53"><rect class="cls-1" x="492.3612671" y="23.8406219" width="182.0387573" height="154.5343819"/></clipPath><clipPath id="clippath-54"><rect class="cls-1" x="492.3612671" y="23.8406219" width="182.0387573" height="154.5343819"/></clipPath><clipPath id="clippath-55"><rect class="cls-1" x="492.3612671" y="23.8406219" width="182.0387573" height="154.5343819"/></clipPath><clipPath id="clippath-56"><rect class="cls-1" x="492.3612671" y="23.8406219" width="182.0387573" height="154.5343819"/></clipPath><clipPath id="clippath-57"><rect class="cls-1" x="492.3612671" y="23.8406219" width="182.0387573" height="154.5343819"/></clipPath><clipPath id="clippath-58"><rect class="cls-1" x="492.3612671" y="23.8406219" width="182.0387573" height="154.5343819"/></clipPath><clipPath id="clippath-59"><rect class="cls-1" x="492.3612671" y="23.8406219" width="182.0387573" height="154.5343819"/></clipPath><clipPath id="clippath-60"><rect class="cls-1" x="492.3612671" y="23.8406219" width="182.0387573" height="154.5343819"/></clipPath><clipPath id="clippath-61"><rect class="cls-1" x="492.3612671" y="23.8406219" width="182.0387573" height="154.5343819"/></clipPath><clipPath id="clippath-62"><rect class="cls-1" x="492.3612671" y="23.8406219" width="182.0387573" height="154.5343819"/></clipPath><clipPath id="clippath-63"><rect class="cls-1" x="492.3612671" y="23.8406219" width="182.0387573" height="154.5343819"/></clipPath><clipPath id="clippath-64"><rect class="cls-1" x="492.3612671" y="23.8406219" width="182.0387573" height="154.5343819"/></clipPath></defs><rect class="cls-89" width="681.5999756" height="200.8000031"/><rect class="cls-89" x="60.6906242" y="23.8406219" width="182.0387306" height="154.5343819"/><g class="cls-96"><line class="cls-4" x1="85.3589783" y1="178.3750038" x2="85.3589783" y2="23.8406219"/></g><line class="cls-5" x1="85.3589783" y1="178.3750038" x2="85.3589783" y2="178.4750023"/><text class="cls-12" transform="translate(71.9917908 191.1000032)"><tspan x="0" y="0">0.25</tspan></text><g class="cls-80"><line class="cls-4" x1="135.4312286" y1="178.3750038" x2="135.4312286" y2="23.8406219"/></g><line class="cls-5" x1="135.4312286" y1="178.3750038" x2="135.4312286" y2="178.4750023"/><text class="cls-12" transform="translate(122.0640411 191.1000032)"><tspan x="0" y="0">0.50</tspan></text><g class="cls-83"><line class="cls-4" x1="185.503479" y1="178.3750038" x2="185.503479" y2="23.8406219"/></g><line class="cls-5" x1="185.503479" y1="178.3750038" x2="185.503479" y2="178.4750023"/><text class="cls-12" transform="translate(172.1362915 191.1000032)"><tspan x="0" y="0">0.75</tspan></text><g class="cls-81"><line class="cls-4" x1="235.5757294" y1="178.3750038" x2="235.5757294" y2="23.8406219"/></g><line class="cls-5" x1="235.5757294" y1="178.3750038" x2="235.5757294" y2="178.4750023"/><text class="cls-12" transform="translate(222.2085419 191.1000032)"><tspan x="0" y="0">1.00</tspan></text><line class="cls-5" x1="50.6906242" y1="167.2187767" x2="50.5906258" y2="167.2187767"/><text class="cls-8" transform="translate(29.3718758 171.7812786)"><tspan x="0" y="0">SFL</tspan></text><line class="cls-5" x1="50.6906242" y1="150.6910362" x2="50.5906258" y2="150.6910362"/><text class="cls-15" transform="translate(11.6218748 155.2535362)"><tspan class="cls-94" x="0" y="0">A</tspan><tspan x="8.0170898" y="0">CCEL</tspan></text><line class="cls-5" x1="50.6906242" y1="134.1632996" x2="50.5906258" y2="134.1632996"/><text class="cls-13" transform="translate(19.9187508 138.7257957)"><tspan class="cls-90" x="0" y="0">F</tspan><tspan x="5.8105469" y="0">ARR</tspan></text><line class="cls-5" x1="50.6906242" y1="117.6355591" x2="50.5906258" y2="117.6355591"/><text class="cls-11" transform="translate(7.1999998 122.1980591)"><tspan class="cls-91" x="0" y="0">P</tspan><tspan x="6.4804688" y="0">AIRED</tspan></text><line class="cls-5" x1="50.6906242" y1="101.1078186" x2="50.5906258" y2="101.1078186"/><text class="cls-14" transform="translate(19.5125008 105.6703186)"><tspan class="cls-95" x="0" y="0">R</tspan><tspan x="7.8579102" y="0">ARL</tspan></text><line class="cls-5" x1="50.6906242" y1="84.5800781" x2="50.5906258" y2="84.5800781"/><text class="cls-6" transform="translate(28.3250008 89.1425781)"><tspan x="0" y="0">PLR</tspan></text><line class="cls-5" x1="50.6906242" y1="68.0523376" x2="50.5906258" y2="68.0523376"/><text class="cls-10" transform="translate(25.5281258 72.6148376)"><tspan x="0" y="0">VDS</tspan></text><line class="cls-5" x1="50.6906242" y1="51.5245972" x2="50.5906258" y2="51.5245972"/><text class="cls-7" transform="translate(33.0125008 56.0870972)"><tspan x="0" y="0">DR</tspan></text><line class="cls-5" x1="50.6906242" y1="34.9968567" x2="50.5906258" y2="34.9968567"/><text class="cls-9" transform="translate(26.8093758 39.5593567)"><tspan x="0" y="0">FGE</tspan></text><g class="cls-82"><rect class="cls-25" x="201.3765106" y="163.0868416" width="28.7202759" height="8.2638721"/></g><g class="cls-88"><rect class="cls-18" x="149.2409973" y="146.5591011" width="80.3610229" height="8.2638702"/></g><g class="cls-85"><rect class="cls-23" x="138.4564056" y="130.0313644" width="51.8689423" height="8.2638664"/></g><g class="cls-84"><rect class="cls-21" x="84.8745117" y="113.503624" width="75.5029449" height="8.2638702"/></g><g class="cls-87"><rect class="cls-19" x="60.6906242" y="96.9758835" width="83.3206367" height="8.2638702"/></g><g class="cls-86"><rect class="cls-17" x="215.7352905" y="80.448143" width="11.806015" height="8.2638702"/></g><g class="cls-31"><rect class="cls-24" x="212.6672363" y="63.9203949" width="18.5072479" height="8.2638702"/></g><g class="cls-28"><rect class="cls-22" x="210.1016235" y="47.3926544" width="19.0341797" height="8.2638702"/></g><g class="cls-35"><rect class="cls-20" x="231.6878052" y="30.8649139" width="2.3730316" height="8.2638702"/></g><g class="cls-33"><line class="cls-2" x1="218.3848267" y1="171.0924664" x2="218.3848267" y2="164.1198273"/></g><g class="cls-34"><line class="cls-2" x1="212.0844421" y1="154.5647278" x2="212.0844421" y2="147.5920868"/></g><g class="cls-32"><line class="cls-2" x1="168.8250427" y1="138.0369873" x2="168.8250427" y2="131.0643463"/></g><g class="cls-29"><line class="cls-2" x1="123.1231918" y1="121.5092468" x2="123.1231918" y2="114.5366058"/></g><g class="cls-26"><line class="cls-2" x1="95.1776962" y1="104.9815063" x2="95.1776962" y2="98.0088654"/></g><g class="cls-30"><line class="cls-2" x1="221.0790253" y1="88.4537659" x2="221.0790253" y2="81.4811249"/></g><g class="cls-27"><line class="cls-2" x1="225.0127869" y1="71.9260254" x2="225.0127869" y2="64.9533844"/></g><g class="cls-64"><line class="cls-2" x1="221.5123291" y1="55.3982849" x2="221.5123291" y2="48.4256439"/></g><g class="cls-65"><line class="cls-2" x1="232.9525299" y1="38.8705444" x2="232.9525299" y2="31.8979034"/></g><line class="cls-3" x1="60.6906242" y1="178.3750038" x2="242.7293549" y2="178.3750038"/><text class="cls-16" transform="translate(97.452179 17.8406219)"><tspan x="0" y="0">Safety </tspan><tspan class="cls-92" x="49.2324219" y="0">R</tspan><tspan x="58.6660156" y="0">ate (↑)</tspan></text><rect class="cls-89" x="286.3225403" y="23.8406219" width="182.0387268" height="154.5343819"/><g class="cls-66"><line class="cls-4" x1="286.3225403" y1="178.3750038" x2="286.3225403" y2="23.8406219"/></g><line class="cls-5" x1="286.3225403" y1="178.3750038" x2="286.3225403" y2="178.4750023"/><text class="cls-12" transform="translate(272.9553528 191.1000032)"><tspan x="0" y="0">0.00</tspan></text><g class="cls-67"><line class="cls-4" x1="337.2730713" y1="178.3750038" x2="337.2730713" y2="23.8406219"/></g><line class="cls-5" x1="337.2730713" y1="178.3750038" x2="337.2730713" y2="178.4750023"/><text class="cls-12" transform="translate(323.9058838 191.1000032)"><tspan x="0" y="0">0.25</tspan></text><g class="cls-68"><line class="cls-4" x1="388.2236328" y1="178.3750038" x2="388.2236328" y2="23.8406219"/></g><line class="cls-5" x1="388.2236328" y1="178.3750038" x2="388.2236328" y2="178.4750023"/><text class="cls-12" transform="translate(374.8564453 191.1000032)"><tspan x="0" y="0">0.50</tspan></text><g class="cls-69"><line class="cls-4" x1="439.1741638" y1="178.3750038" x2="439.1741638" y2="23.8406219"/></g><line class="cls-5" x1="439.1741638" y1="178.3750038" x2="439.1741638" y2="178.4750023"/><text class="cls-12" transform="translate(425.8069763 191.1000032)"><tspan x="0" y="0">0.75</tspan></text><g class="cls-62"><rect class="cls-25" x="289.7868042" y="163.0868416" width="41.0510864" height="8.2638721"/></g><g class="cls-60"><rect class="cls-18" x="292.3167114" y="146.5591011" width="101.4528198" height="8.2638702"/></g><g class="cls-63"><rect class="cls-23" x="289.7960205" y="130.0313644" width="22.7154846" height="8.2638664"/></g><g class="cls-61"><rect class="cls-21" x="286.3225403" y="113.503624" width="35.4204102" height="8.2638702"/></g><g class="cls-56"><rect class="cls-19" x="291.9940491" y="96.9758835" width="25.3621521" height="8.2638702"/></g><g class="cls-51"><rect class="cls-17" x="297.8673401" y="80.448143" width="55.7597046" height="8.2638702"/></g><g class="cls-52"><rect class="cls-24" x="291.2167969" y="63.9203949" width="37.5004272" height="8.2638702"/></g><g class="cls-53"><rect class="cls-20" x="416.9234009" y="30.8649139" width="42.7693481" height="8.2638702"/></g><g class="cls-54"><line class="cls-2" x1="304.0706482" y1="171.0924664" x2="304.0706482" y2="164.1198273"/></g><g class="cls-57"><line class="cls-2" x1="331.4292908" y1="154.5647278" x2="331.4292908" y2="147.5920868"/></g><g class="cls-58"><line class="cls-2" x1="295.0263367" y1="138.0369873" x2="295.0263367" y2="131.0643463"/></g><g class="cls-59"><line class="cls-2" x1="286.4940796" y1="121.5092468" x2="286.4940796" y2="114.5366058"/></g><g class="cls-55"><line class="cls-2" x1="299.9718018" y1="104.9815063" x2="299.9718018" y2="98.0088654"/></g><g class="cls-76"><line class="cls-2" x1="323.7535095" y1="88.4537659" x2="323.7535095" y2="81.4811249"/></g><g class="cls-70"><line class="cls-2" x1="308.0647278" y1="71.9260254" x2="308.0647278" y2="64.9533844"/></g><g class="cls-71"><line class="cls-2" x1="286.3225403" y1="55.3982849" x2="286.3225403" y2="48.4256439"/></g><g class="cls-72"><line class="cls-2" x1="434.2712402" y1="38.8705444" x2="434.2712402" y2="31.8979034"/></g><line class="cls-3" x1="286.3225403" y1="178.3750038" x2="468.3612671" y2="178.3750038"/><text class="cls-16" transform="translate(289.4278564 17.8406219)"><tspan x="0" y="0">Coverage Gain vs DR (↑)</tspan></text><rect class="cls-89" x="492.3612671" y="23.8406219" width="182.0387573" height="154.5343819"/><g class="cls-73"><line class="cls-4" x1="541.6726685" y1="178.3750038" x2="541.6726685" y2="23.8406219"/></g><line class="cls-5" x1="541.6726685" y1="178.3750038" x2="541.6726685" y2="178.4750023"/><text class="cls-12" transform="translate(528.305481 191.1000032)"><tspan x="0" y="0">0.25</tspan></text><g class="cls-74"><line class="cls-4" x1="591.5517578" y1="178.3750038" x2="591.5517578" y2="23.8406219"/></g><line class="cls-5" x1="591.5517578" y1="178.3750038" x2="591.5517578" y2="178.4750023"/><text class="cls-12" transform="translate(578.1845703 191.1000032)"><tspan x="0" y="0">0.50</tspan></text><g class="cls-77"><line class="cls-4" x1="641.4307861" y1="178.3750038" x2="641.4307861" y2="23.8406219"/></g><line class="cls-5" x1="641.4307861" y1="178.3750038" x2="641.4307861" y2="178.4750023"/><text class="cls-12" transform="translate(628.0635986 191.1000032)"><tspan x="0" y="0">0.75</tspan></text><g class="cls-78"><rect class="cls-25" x="492.3612671" y="163.0868416" width="9.5523987" height="8.2638721"/></g><g class="cls-79"><rect class="cls-18" x="496.8768311" y="146.5591011" width="73.7547607" height="8.2638702"/></g><g class="cls-75"><rect class="cls-23" x="523.5838623" y="130.0313644" width="61.0395508" height="8.2638664"/></g><g class="cls-41"><rect class="cls-21" x="566.5469971" y="113.503624" width="73.2939453" height="8.2638702"/></g><g class="cls-48"><rect class="cls-19" x="572.279541" y="96.9758835" width="93.4519653" height="8.2638702"/></g><g class="cls-43"><rect class="cls-17" x="492.4393921" y="80.448143" width="6.2827759" height="8.2638702"/></g><g class="cls-47"><rect class="cls-24" x="492.502655" y="63.9203949" width="2.2574768" height="8.2638702"/></g><g class="cls-45"><rect class="cls-22" x="492.5199585" y="47.3926544" width="5.040802" height="8.2638702"/></g><g class="cls-42"><rect class="cls-20" x="492.5843811" y="30.8649139" width="1.4157715" height="8.2638702"/></g><g class="cls-46"><line class="cls-2" x1="495.6651917" y1="171.0924664" x2="495.6651917" y2="164.1198273"/></g><g class="cls-44"><line class="cls-2" x1="509.7952881" y1="154.5647278" x2="509.7952881" y2="147.5920868"/></g><g class="cls-49"><line class="cls-2" x1="551.5783081" y1="138.0369873" x2="551.5783081" y2="131.0643463"/></g><g class="cls-50"><line class="cls-2" x1="603.359375" y1="121.5092468" x2="603.359375" y2="114.5366058"/></g><g class="cls-37"><line class="cls-2" x1="628.4344482" y1="104.9815063" x2="628.4344482" y2="98.0088654"/></g><g class="cls-36"><line class="cls-2" x1="494.8842468" y1="88.4537659" x2="494.8842468" y2="81.4811249"/></g><g class="cls-38"><line class="cls-2" x1="493.5421143" y1="71.9260254" x2="493.5421143" y2="64.9533844"/></g><g class="cls-40"><line class="cls-2" x1="494.5272217" y1="55.3982849" x2="494.5272217" y2="48.4256439"/></g><g class="cls-39"><line class="cls-2" x1="493.29776" y1="38.8705444" x2="493.29776" y2="31.8979034"/></g><line class="cls-3" x1="492.3612671" y1="178.3750038" x2="674.4000244" y2="178.3750038"/><text class="cls-16" transform="translate(496.2087708 17.8406219)"><tspan x="0" y="0">Coverage </tspan><tspan class="cls-93" x="71.5244141" y="0">L</tspan><tspan x="79.1000977" y="0">oss vs DR (↓)</tspan></text></svg>